<svg version="1.1" xmlns="http://www.w3.org/2000/svg" xmlns:xlink="http://www.w3.org/1999/xlink" x="0px" y="0px"
        width="30px" height="30px" viewBox="0 0 30 30" enable-background="new 0 0 30 30" xml:space="preserve">
      
        <g>
            <g>
                <path fill="#4A4A4A" d="M27.147,11.153C27.148,11.153,27.148,11.153,27.147,11.153c0.626-0.121,1.173-0.19,0.55,0.69
          c-0.209,0.295-0.16,0.619,0.035,0.901c0.574,0.828,0.072,1.343-0.613,1.536c-1.18,0.332-1.906,1.116-2.536,2.066
          c-0.087,0.131-0.184,0.243-0.287,0.342c-0.238,0.996-0.623,1.795-1.119,2.431c0.155,0.059,0.31,0.119,0.457,0.19
          c0.748,0.358,1.462,0.437,2.175-0.074c0.233-0.166,0.515-0.355,0.754-0.024c0.209,0.287,0.063,0.58-0.152,0.774
          c-0.93,0.834-1.506,1.806-1.405,3.108c0.024,0.319-0.192,0.47-0.513,0.283c-0.615-0.358-1.264-0.528-1.637,0.241
          c-0.412,0.849,0.124,1.379,0.835,1.767c0.692-0.283,1.507-0.233,2.107-0.768l0,0c0.258-0.498,0.88-0.896,1.527-1.085
          C29.007,21.108,30,18.171,30,14.997c0-1.108-0.129-2.185-0.356-3.224c-0.333-0.149-0.629-0.344-0.82-0.581
          C28.34,10.596,27.786,10.583,27.147,11.153z" />
                <path fill="#4A4A4A" d="M18.414,22.5c0.325,0.37,0.654,0.626,1.137,0.229c0.307-0.252,0.661-0.156,1.014-0.123
          c0.509,0.047,0.856-0.207,1.061-0.66c0.193-0.434,0.113-0.807-0.253-1.12c-0.052-0.044-0.102-0.089-0.148-0.135
          c-0.861,0.428-1.817,0.676-2.783,0.825C18.205,21.832,18.09,22.132,18.414,22.5z" />
                <path fill="#4A4A4A" d="M25.07,14.277c-0.004-0.291-0.125-0.507-0.445-0.515c-0.038-0.001-0.062-0.022-0.098-0.028
          c0.012,0.161,0.043,0.311,0.043,0.478c0,0.255-0.015,0.492-0.028,0.729c0.048-0.018,0.098-0.031,0.146-0.05
          C24.945,14.789,25.074,14.559,25.07,14.277z" />
                <path fill="#5C5C5C" d="M17.902,1.206c-0.27,0.77-0.678,1.501-0.359,2.396c0.161,0.452-0.264,0.943-0.658,0.868
          c-1.201-0.231-2.132,0.196-3.008,0.913c0,0,0,0,0-0.001c-0.696,0.137-1.461,0.122-1.772,0.986
          c-0.147,0.407-1.056-0.058-0.92,0.746c0.02,0.204,0.014,0.407,0.012,0.61c0.019,0.013,0.034,0.021,0.053,0.033
          c0.474-0.132,0.964-0.23,1.459-0.31c0.371-2.028,0.763-2.064,2.602-0.592c0.164,0.131,0.312,0.282,0.467,0.426
          C16.09,7.299,16.4,7.326,16.71,7.363c0.252-0.055,0.46-0.234,0.577-0.705c0.1-0.404,0.457,0.046,0.671,0.156
          c0.206,0.105,0.533,0.227,0.242,0.556c-0.071,0.08-0.178,0.13-0.274,0.188c0.281,0.059,0.561,0.123,0.834,0.199
          c0.057-0.038,0.102-0.062,0.157-0.098c0.221-0.953,0.246-2.32-0.038-2.854c0,0,0,0,0,0c-0.001,0-0.001,0.001-0.002,0.001
          c-0.498-0.402-0.822-1.886-0.536-2.561C18.505,1.86,18.652,1.48,18.7,1.058c0.022-0.207,0.043-0.39,0.083-0.559
          c-0.27-0.07-0.534-0.147-0.809-0.203C18.107,0.572,18.016,0.88,17.902,1.206z" />
                <path fill="#424242" d="M25.798,24.616L25.798,24.616c0.001-0.001,0.003-0.001,0.004-0.002c0.307-0.125,0.604-0.2,0.896-0.246
          c0.219-0.271,0.428-0.55,0.627-0.837C26.678,23.721,26.056,24.118,25.798,24.616z" />
                <path fill="#444444" d="M3.491,15.965C3.491,15.965,3.491,15.965,3.491,15.965c0.216,0.493,0.276,1.031,0.527,1.524
          c0.321,0.633-0.441,1.884-1.216,2.032C2.307,19.617,1.79,19.6,1.283,19.615c-0.188,0.006-0.367,0.022-0.522,0.085
          c0.624,1.89,1.613,3.613,2.884,5.087c0.009-0.003,0.011-0.01,0.02-0.012c0.402-0.104,0.686,0.19,0.812,0.529
          c0.092,0.246,0.202,0.467,0.328,0.671c0.265,0.246,0.538,0.482,0.82,0.709c0.1,0.041,0.188,0.093,0.307,0.118
          c0.198,0.043,0.259,0.178,0.275,0.337c0.43,0.312,0.882,0.595,1.346,0.86c0.204-0.234,0.525-0.219,0.833-0.089
          c0.632,0.269,1.177,0.172,1.732-0.142l0.089-0.033c0.354,0.059,0.701,0.062,1.045,0.045c0.001-0.458,0.002-1.064-0.001-1.757
          c-0.077,0.024-0.161,0.042-0.266,0.04c-0.093-0.002-0.165-0.037-0.245-0.06c-3.726,0.569-4.525-2.063-4.525-2.063
          C5.532,22.21,4.55,21.749,4.55,21.749c-1.361-0.931,0.102-0.912,0.102-0.912c1.505,0.104,2.298,1.546,2.298,1.546
          c1.338,2.29,3.509,1.628,4.363,1.246c0.137-0.97,0.525-1.63,0.953-2.005c-3.175-0.361-6.498-1.558-6.801-6.648
          C4.974,15.588,4.45,16.238,3.491,15.965z" />
                <path fill="#444444" d="M24.18,26.354c-0.527,0.31-1.055,0.617-1.703,0.551c-0.191-0.02-0.412-0.031-0.473-0.25
          s0.116-0.354,0.28-0.453c0.464-0.279,0.937-0.547,1.403-0.816c0.001,0,0.002,0,0.003-0.001c-0.711-0.388-1.247-0.918-0.835-1.767
          c0.373-0.77,1.021-0.6,1.637-0.241c0.32,0.187,0.537,0.036,0.513-0.283c-0.101-1.303,0.476-2.274,1.405-3.108
          c0.216-0.194,0.361-0.487,0.152-0.774c-0.239-0.331-0.521-0.142-0.754,0.024c-0.713,0.511-1.427,0.433-2.175,0.074
          c-0.147-0.071-0.302-0.132-0.457-0.19c-0.542,0.696-1.211,1.203-1.953,1.572c0.047,0.046,0.097,0.091,0.148,0.135
          c0.366,0.313,0.446,0.687,0.253,1.12c-0.204,0.453-0.552,0.707-1.061,0.66c-0.353-0.033-0.707-0.129-1.014,0.123
          c-0.482,0.397-0.812,0.142-1.137-0.229c-0.324-0.368-0.209-0.668,0.026-0.984c-0.239,0.036-0.479,0.069-0.718,0.096
          c0.538,0.465,1.026,1.365,1.026,2.764c0,1.875,0,3.658,0,4.15c0,0.401,0.242,0.846,1.003,0.699
          c1.915-0.639,3.655-1.656,5.139-2.959C24.677,26.188,24.443,26.199,24.18,26.354z" />
                <path fill="#444444"
                    d="M24.583,16.346c0.63-0.95,1.356-1.734,2.536-2.066c0.686-0.193,1.188-0.708,0.613-1.536
          c-0.195-0.282-0.244-0.606-0.035-0.901c0.623-0.88,0.076-0.811-0.549-0.689c0,0,0,0-0.001-0.001c0,0-0.001,0-0.001,0.001
          c-0.674,0.02-1.082-0.272-1.181-0.967c-0.065-0.463-0.399-0.799-0.668-1.14c-0.409-0.523-0.647-1.078-0.649-1.738
          c0.001-0.003,0.003-0.004,0.004-0.007c0.073-0.563,0.779-0.501,0.959-0.96c-0.418-0.266-0.987-0.175-1.35-0.573
          C23.34,5.361,22.4,5.005,21.586,4.368c-0.749-0.587-1.552-0.349-2.312,0.061c-0.001,0-0.002,0-0.003,0.001
          c0.001,0,0.001,0,0.001,0c-0.13,0.125-0.263,0.251-0.393,0.375c0,0,0,0,0,0c0.284,0.534,0.259,1.901,0.038,2.854
          c2.745-1.813,3.964-1.441,3.964-1.441c0.817,2.065,0.303,3.591,0.148,3.97c0.861,0.941,1.394,2.13,1.498,3.545
          c0.035,0.006,0.06,0.027,0.098,0.028c0.32,0.008,0.441,0.224,0.445,0.515c0.004,0.282-0.125,0.512-0.383,0.614
          c-0.048,0.019-0.098,0.033-0.146,0.05c-0.036,0.642-0.12,1.222-0.246,1.746C24.399,16.589,24.496,16.477,24.583,16.346z
           M23.703,8.934c-0.002-0.246-0.107-0.696,0.32-0.623c0.459,0.08,0.392,0.57,0.434,0.941c-0.057,0.222,0.098,0.647-0.209,0.626
          C23.741,9.843,23.706,9.341,23.703,8.934z M24.376,11.705c0.041-0.233,0.196-0.381,0.422-0.438
          c0.134-0.033,0.24,0.018,0.261,0.189c-0.069,0.245-0.225,0.433-0.486,0.482C24.426,11.965,24.35,11.843,24.376,11.705z" />
                <path fill="#444444" d="M17.958,6.814c-0.214-0.11-0.571-0.56-0.671-0.156c-0.117,0.471-0.325,0.65-0.577,0.705
          c0.409,0.048,0.815,0.112,1.216,0.195C18.022,7.5,18.129,7.45,18.2,7.37C18.491,7.041,18.164,6.919,17.958,6.814z" />
                <path fill="#444444" d="M10.987,7.117c0.002,0.16,0.004,0.32,0.005,0.479c0.071,0.046,0.132,0.079,0.205,0.128
          c0.002-0.203,0.008-0.406-0.012-0.61L10.987,7.117z" />
                <path fill="#363636" d="M25.802,24.614c-0.001,0.001-0.003,0.001-0.004,0.002c-0.601,0.534-1.415,0.484-2.107,0.768
          c-0.001,0.001-0.002,0.001-0.003,0.001c-0.467,0.27-0.939,0.537-1.403,0.816c-0.164,0.099-0.341,0.234-0.28,0.453
          s0.281,0.23,0.473,0.25c0.648,0.066,1.176-0.241,1.703-0.551c0.264-0.154,0.497-0.165,0.711-0.088
          c0.658-0.577,1.26-1.214,1.808-1.897C26.406,24.414,26.108,24.489,25.802,24.614z" />
                <path fill="#363636" d="M10.206,27.736l-0.089,0.033c-0.555,0.313-1.1,0.41-1.732,0.142C8.077,27.781,7.756,27.766,7.552,28
          c0.856,0.491,1.759,0.91,2.711,1.227c0.75,0.138,0.986-0.308,0.986-0.705c0-0.146,0.001-0.405,0.002-0.74
          C10.907,27.798,10.56,27.795,10.206,27.736z" />
                <path fill="#363636" d="M5.931,26.803c-0.119-0.025-0.207-0.077-0.307-0.118c0.192,0.154,0.382,0.31,0.582,0.455
          C6.19,26.98,6.129,26.846,5.931,26.803z" />
                <path fill="#363636" d="M3.665,24.775c-0.009,0.002-0.011,0.009-0.02,0.012c0.362,0.419,0.753,0.812,1.16,1.188
          c-0.125-0.204-0.236-0.425-0.328-0.671C4.351,24.966,4.067,24.671,3.665,24.775z" />
                <path fill="#4A4A4A"
                    d="M8.098,3.083c0.761,0.202,1.249,1.012,2.197,0.875c0.492-0.071,0.528,0.493,0.477,0.869
          c-0.077,0.574-0.09,1.139,0.017,1.707l0,0c0.066,0.194,0.132,0.388,0.198,0.582c0,0,0,0,0,0.001l0.198-0.003
          c-0.136-0.804,0.773-0.339,0.92-0.746c0.311-0.864,1.077-0.849,1.772-0.986c0.192-0.675,0.514-1.213,1.254-1.432
          c0.763-0.225,0.772-0.758,0.429-1.352c-0.125-0.218-0.332-0.389-0.482-0.594c-0.164-0.222-0.453-0.43-0.269-0.752
          c0.195-0.341,0.486-0.148,0.765-0.092c0.878,0.179,1.506-0.12,2.006-0.923c-0.73-0.127-1.477-0.203-2.239-0.22
          c-0.069,0.022-0.137,0.046-0.207,0.064c-0.17,0.044-0.292,0.259-0.462,0.325c-0.31,0.121-0.677,0.382-0.944-0.023
          c-0.07-0.106-0.084-0.212-0.077-0.314C11.601,0.252,9.669,0.844,7.939,1.77c0.197,0.298,0.345,0.623,0.544,0.895
          C8.648,2.887,8.301,3.001,8.098,3.083z M11.11,3.998c0.353,0.595,0.318,1.025,0.082,1.631C10.92,5.05,10.973,4.619,11.11,3.998z
           M9.257,2.635c0.438,0.231,0.792,0.417,1.156,0.609c-0.172,0.39-0.463,0.523-0.781,0.372C9.292,3.455,9.174,3.117,9.257,2.635z" />
                <path fill="#4A4A4A" d="M2.775,8.069c0.876-0.048,0.937-0.771,1.087-1.365c0.183-0.722,0.881-1.148,0.981-1.932
          C4.88,4.479,4.947,4.214,4.9,3.938C3.623,5.105,2.544,6.482,1.731,8.027C2.058,8.088,2.411,8.089,2.775,8.069z" />
                <path fill="#555555" d="M13.729,0.383c0.267,0.405,0.634,0.144,0.944,0.023c0.17-0.066,0.292-0.281,0.462-0.325
          c0.069-0.018,0.138-0.042,0.207-0.064C15.228,0.015,15.117,0,15.003,0c-0.456,0-0.905,0.028-1.351,0.068
          C13.645,0.171,13.659,0.276,13.729,0.383z" />
                <path fill="#6E6E6E" d="M19.139,2.425c0.129,0.596,0.389,1.131-0.156,1.681c-0.203,0.206,0.104,0.284,0.288,0.324
          c0.001,0,0.002,0,0.003-0.001c0.761-0.41,1.563-0.648,2.312-0.061c0.814,0.637,1.754,0.993,2.676,1.401
          c0.799,0.007,1.611-0.017,1.924,0.961c0.193,0.111,0.383,0.235,0.584,0.329c0.144,0.065,0.324,0.127,0.436-0.041
          c0.1-0.152,0.016-0.316-0.086-0.44C26.721,6.085,26.32,5.59,25.9,5.114c-0.21-0.24-0.33-0.486-0.304-0.732
          c-1.688-1.684-3.773-2.967-6.104-3.697C18.928,1.111,19.005,1.81,19.139,2.425z" />
                <path fill="#212121" d="M10.789,6.534c-0.107-0.568-0.094-1.133-0.017-1.707c0.051-0.376,0.015-0.94-0.477-0.869
          C9.347,4.095,8.859,3.285,8.098,3.083c-0.538-0.131-0.547-0.61-0.692-1C6.505,2.614,5.667,3.236,4.9,3.938
          c0.047,0.276-0.02,0.541-0.058,0.834c-0.1,0.784-0.798,1.21-0.981,1.932c-0.15,0.594-0.211,1.317-1.087,1.365
          c-0.364,0.021-0.717,0.02-1.044-0.042c-1.096,2.083-1.724,4.452-1.724,6.97c0,0.095,0.01,0.188,0.011,0.283
          c0.095-0.044,0.188-0.091,0.284-0.124c2.154-0.746,2.391-2.926,3.229-4.583C4.29,9.072,5.406,8.259,6.725,7.797
          C6.783,7.319,6.9,6.793,7.127,6.219c0,0,0.906-0.268,2.895,0.799C10.294,6.902,10.553,6.757,10.789,6.534z" />
                <path fill="#5F5F5F" d="M25.9,5.114c0.42,0.476,0.82,0.971,1.219,1.464c0.102,0.124,0.186,0.288,0.086,0.44
          c-0.111,0.168-0.292,0.106-0.436,0.041c-0.201-0.094-0.391-0.218-0.584-0.329c0.099,0.155,0.185,0.32,0.297,0.464
          c0.135,0.17,0.605,0.193,0.367,0.505c-0.244,0.317-0.602,0.119-0.791-0.152c-0.404-0.57-0.845-0.716-1.408-0.238
          c0-0.003,0.002-0.005,0.002-0.007c-0.001,0.003-0.003,0.004-0.004,0.007c0.002,0.66,0.24,1.215,0.649,1.738
          c0.269,0.341,0.603,0.677,0.668,1.14c0.099,0.695,0.507,0.987,1.181,0.967c0,0,0.001,0,0.001-0.001
          c0.639-0.57,1.192-0.557,1.676,0.04c0.191,0.237,0.487,0.431,0.82,0.581c-0.625-2.852-2.054-5.401-4.047-7.391
          C25.57,4.628,25.69,4.875,25.9,5.114z" />
                <path fill="#313131"
                    d="M10.987,7.116c-0.066-0.194-0.132-0.388-0.198-0.582l0,0c-0.236,0.223-0.495,0.368-0.767,0.483
          c0.298,0.16,0.622,0.353,0.97,0.579C10.991,7.437,10.989,7.277,10.987,7.116C10.987,7.117,10.987,7.117,10.987,7.116z" />
                <path fill="#313131" d="M3.531,10.573c-0.838,1.657-1.075,3.837-3.229,4.583c1.128-0.381,2.361,0.013,3.188,0.809c0,0,0,0,0,0.001
          c0-0.001,0.001-0.001,0.001-0.001c0.959,0.273,1.482-0.377,1.974-0.989c-0.015-0.249-0.03-0.498-0.03-0.765
          c0-0.58,0.096-1.109,0.234-1.615c-0.247,0.027-0.493,0.054-0.752,0.084c-0.515,0.01-0.957-0.216-1.142-0.762
          C3.6,11.4,3.689,10.886,4.14,10.538c0.443-0.343,0.93-0.391,1.385,0.026c0.29,0.266,0.639,0.227,0.983,0.236
          c0.148-0.21,0.295-0.421,0.47-0.612c-0.11-0.273-0.403-1.15-0.253-2.391C5.406,8.259,4.29,9.072,3.531,10.573z" />
                <path fill="#555555" d="M2.802,19.521c0.775-0.148,1.537-1.399,1.216-2.032c-0.251-0.493-0.311-1.031-0.528-1.523
          c0-0.001,0-0.001,0-0.001c-0.827-0.795-2.06-1.189-3.188-0.809c-0.096,0.033-0.189,0.08-0.284,0.124
          c0.029,1.541,0.283,3.026,0.743,4.42c0.156-0.062,0.335-0.079,0.522-0.085C1.79,19.6,2.307,19.617,2.802,19.521z" />
                <path fill="#656565" d="M18.341,2.246c-0.286,0.675,0.038,2.159,0.536,2.561c0.001,0,0.001-0.001,0.002-0.001
          c0.13-0.125,0.263-0.25,0.393-0.375c0,0,0,0-0.001,0c-0.184-0.041-0.491-0.119-0.288-0.324c0.545-0.55,0.285-1.085,0.156-1.681
          c-0.134-0.615-0.211-1.313,0.354-1.74C19.26,0.612,19.02,0.561,18.783,0.5c-0.04,0.168-0.061,0.352-0.083,0.559
          C18.652,1.48,18.505,1.86,18.341,2.246z" />
                <path fill="#555555" d="M15.574,1.16c-0.279-0.056-0.57-0.249-0.765,0.092c-0.184,0.322,0.105,0.53,0.269,0.752
          c0.151,0.205,0.357,0.376,0.482,0.594c0.344,0.594,0.334,1.127-0.429,1.352c-0.74,0.219-1.062,0.756-1.254,1.432c0,0,0,0,0,0.001
          c0.876-0.717,1.807-1.144,3.008-0.913c0.395,0.075,0.819-0.416,0.658-0.868c-0.318-0.895,0.09-1.626,0.359-2.396
          c0.113-0.326,0.205-0.634,0.072-0.909c-0.13-0.026-0.264-0.038-0.395-0.06C17.08,1.04,16.452,1.339,15.574,1.16z" />
                <path fill="#343434" d="M12.709,7.448c0.755-0.122,1.525-0.191,2.296-0.194c0.258,0.001,0.516,0.014,0.773,0.028
          c-0.155-0.144-0.303-0.294-0.467-0.426C13.472,5.384,13.08,5.419,12.709,7.448z" />
                <path fill="#707070" d="M11.25,26.024c0-0.036,0-0.07,0-0.106c-0.179,0.039-0.343,0.062-0.51,0.087
          c0.08,0.022,0.151,0.058,0.245,0.06C11.088,26.066,11.173,26.049,11.25,26.024z" />
                <path fill="#4A4A4A" d="M24.457,9.252c-0.042-0.371,0.025-0.861-0.434-0.941c-0.428-0.073-0.322,0.377-0.32,0.623
          c0.003,0.407,0.038,0.909,0.545,0.944C24.555,9.899,24.4,9.474,24.457,9.252z" />
                <path fill="#4A4A4A" d="M25.611,6.342L25.611,6.342c-0.18,0.459-0.886,0.397-0.959,0.96c0,0.002-0.002,0.004-0.002,0.007
          c0.563-0.478,1.004-0.332,1.408,0.238c0.189,0.271,0.547,0.469,0.791,0.152c0.238-0.312-0.232-0.335-0.367-0.505
          C26.37,7.05,26.284,6.885,26.186,6.73C25.995,6.601,25.802,6.471,25.611,6.342z" />
                <path fill="#5F5F5F" d="M25.611,6.342c0.19,0.129,0.384,0.259,0.574,0.388c-0.312-0.978-1.125-0.954-1.924-0.961
          C24.624,6.167,25.193,6.076,25.611,6.342L25.611,6.342z" />
                <path fill="#4A4A4A" d="M25.059,11.456c-0.021-0.171-0.127-0.222-0.261-0.189c-0.226,0.057-0.381,0.205-0.422,0.438
          c-0.026,0.138,0.05,0.26,0.196,0.233C24.834,11.889,24.989,11.701,25.059,11.456z" />
                <path fill="#5C5C5C" d="M8.098,3.083c0.203-0.082,0.55-0.196,0.386-0.419c-0.2-0.272-0.348-0.597-0.544-0.895
          C7.757,1.867,7.584,1.978,7.406,2.083C7.551,2.473,7.561,2.952,8.098,3.083z" />
                <path fill="#5C5C5C" d="M9.632,3.616c0.318,0.151,0.609,0.018,0.781-0.372c-0.364-0.192-0.718-0.378-1.156-0.609
          C9.174,3.117,9.292,3.455,9.632,3.616z" />
                <path fill="#5C5C5C"
                    d="M11.11,3.998c-0.137,0.621-0.19,1.052,0.082,1.631C11.428,5.023,11.463,4.593,11.11,3.998z" />
                <path fill="#414141" d="M4.14,10.538c-0.451,0.348-0.54,0.862-0.365,1.38c0.185,0.546,0.627,0.772,1.142,0.762
          c0.259-0.03,0.505-0.057,0.752-0.084c0.18-0.662,0.461-1.262,0.839-1.796c-0.344-0.009-0.693,0.03-0.983-0.236
          C5.07,10.147,4.583,10.195,4.14,10.538z" />
            </g>
        </g>
        
    </svg>