<svg version="1.1" xmlns="http://www.w3.org/2000/svg" xmlns:xlink="http://www.w3.org/1999/xlink" x="0px"
        y="0px" width="30px" height="30px" viewBox="0 0 30 30" enable-background="new 0 0 30 30" xml:space="preserve">
        <g>
            <path fill="#FEFEFE"
                d="M30,15c0-0.01-0.002-0.019-0.002-0.029c0,0.032,0,0.063-0.001,0.095C29.997,15.044,30,15.022,30,15z" />
            <polygon fill="#4A4A4A" points="25.338,17.136 25.338,17.136 25.338,17.136 	" />
            <path fill="#4A4A4A" d="M26.965,17.173c-0.47-0.581-1.007-0.593-1.626-0.037c0.605-0.118,1.136-0.184,0.53,0.669
        c-0.203,0.286-0.156,0.602,0.035,0.875c0.557,0.805,0.07,1.303-0.596,1.49c-0.363,0.103-0.671,0.262-0.957,0.443v2.816h-3.894
        v-2.286c-0.393,0.273-0.824,0.495-1.245,0.729c-0.729,0.404-1.035,0.904-1.064,1.844c-0.037,1.176-0.392,2.391-1.186,3.368
        c-0.283,0.349-0.455,0.664-0.104,1.063c0.314,0.358,0.636,0.605,1.103,0.223c0.297-0.244,0.644-0.152,0.983-0.12
        c0.492,0.047,0.83-0.201,1.029-0.642c0.188-0.42,0.107-0.781-0.246-1.086c-0.403-0.347-0.711-0.762-0.404-1.297
        c0.314-0.552,0.871-0.687,1.46-0.568c0.392,0.078,0.778,0.22,1.141,0.394c0.726,0.349,1.417,0.423,2.109-0.071
        c0.227-0.162,0.5-0.346,0.731-0.024c0.202,0.278,0.062,0.563-0.147,0.753c-0.562,0.503-0.988,1.058-1.209,1.709
        c3.207-2.177,5.524-5.563,6.302-9.503C28.891,18.21,27.514,17.851,26.965,17.173z" />
            <path fill="#5C5C5C" d="M13.314,1.612c-0.198,0.194-0.046,0.342,0.152,0.412c0.484,0.171,0.738,0.57,0.932,0.99
        c0.224,0.486,0.543,0.794,1.063,0.95c0.286,0.087,0.546,0.293,0.791,0.478c0.448,0.337,0.759,0.688,0.079,1.136
        c-0.159,0.104-0.222,0.36-0.326,0.546c-0.001,0-0.001,0-0.002-0.001c0,0,0,0,0,0.001c0.062,0.062,0.125,0.124,0.187,0.187
        c0,0,0,0,0,0c0.451,0.332,0.328,0.734,0.176,1.17c-0.262,0.747-0.658,1.457-0.35,2.324c0.157,0.439-0.255,0.916-0.639,0.843
        c-1.164-0.222-2.067,0.192-2.918,0.888c-0.675,0.133-1.419,0.118-1.721,0.956c-0.058,0.163-0.241,0.183-0.427,0.203v5.307
        c0.19,0.044,0.434,0.064,0.755,0.073c0.425,0.011,0.781,0.188,1.124,0.398c0.095,0.059,0.195,0.103,0.293,0.151
        c0.004-1.403,0.006-2.892,0.005-4.134c-0.134,0.007-0.267,0.027-0.401,0.03c0,0,0,0,0-0.001c0,0,0,0-0.001,0
        c-0.27,0.102-0.46,0.559-0.785,0.312c-0.269-0.203-0.099-0.577-0.05-0.878c0.265-1.637,0.503-2.19,1.224-1.906
        c-0.002-0.146-0.005-0.26-0.009-0.331h3.894v1.169c0.021,0.014,0.041,0.029,0.06,0.038c0.06,0.03,0.125,0.064,0.186,0.102
        c0.229-0.305,0.52-0.625,0.907-0.898c-0.01-0.478-0.068-0.907-0.199-1.152c0,0,0,0,0,0c-0.481-0.39-0.797-1.83-0.52-2.485
        c0.158-0.374,0.303-0.742,0.348-1.152c0.07-0.646,0.084-1.064,0.965-1.476c0.996-0.464,1.881-1.327,3.004-1.72
        c0.24-0.084,0.412-0.345,0.406-0.59c-0.017-0.69,0.06-1.395-0.053-2.07C19.504,0.542,17.317,0,15,0
        c-0.701,0-1.385,0.065-2.061,0.158c0.035,0.042,0.07,0.084,0.105,0.127C13.351,0.658,13.912,1.022,13.314,1.612z" />
            <path fill="#5C5C5C" d="M11.118,1.084c0.521-0.376,0.813-0.588,0.904-0.786c-0.604,0.122-1.191,0.289-1.767,0.481
        c0.009,0.02,0.01,0.04,0.02,0.06C10.47,1.2,10.63,1.436,11.118,1.084z" />
            <path fill="#5C5C5C" d="M16.359,18.176c0.132-0.109,0.245-0.226,0.233-0.419c-0.023-0.401-0.108-0.778-0.22-1.145
        c-0.005,0.093-0.014,0.182-0.014,0.276V18.176z" />
            <path fill="#444444" d="M24.352,20.613c0.286-0.182,0.594-0.341,0.957-0.443c0.666-0.188,1.152-0.686,0.596-1.49
        c-0.191-0.273-0.238-0.589-0.035-0.875c0.605-0.853,0.075-0.787-0.53-0.669l0,0c0,0,0,0-0.001,0l0,0l0,0
        c-0.471,0.015-0.802-0.136-0.989-0.469c0,0.017,0.003,0.029,0.003,0.046V20.613z" />
            <path fill="#444444" d="M24.618,25.709c0.21-0.189,0.35-0.475,0.147-0.753c-0.231-0.321-0.505-0.138-0.731,0.024
        c-0.692,0.494-1.384,0.42-2.109,0.071c-0.362-0.174-0.749-0.315-1.141-0.394c-0.589-0.118-1.146,0.017-1.46,0.568
        c-0.307,0.535,0.001,0.95,0.404,1.297c0.354,0.305,0.434,0.666,0.246,1.086c-0.199,0.44-0.537,0.688-1.029,0.642
        c-0.34-0.032-0.687-0.124-0.983,0.12c-0.467,0.383-0.788,0.136-1.103-0.223c-0.352-0.399-0.18-0.715,0.104-1.063
        c0.794-0.978,1.148-2.192,1.186-3.368c0.029-0.939,0.336-1.439,1.064-1.844c0.421-0.234,0.853-0.456,1.245-0.729v-3.981
        c0-0.618-0.091-1.155-0.282-1.585c-0.089,0.072-0.168,0.152-0.275,0.209c-0.861,0.453-0.881,0.717-0.162,1.442
        c0.339,0.345,0.664,0.69,0.473,1.221c-0.168,0.451-0.562,0.542-0.99,0.545c-0.838,0-1.377-0.758-0.938-1.45
        c0.372-0.593,0.561-1.239,0.809-1.869c0.127-0.321,0.265-0.613,0.498-0.832c-0.288-0.206-0.647-0.329-1.104-0.329
        c-1.075,0-1.717,0.725-1.998,1.423c-0.075,0.183-0.101,0.424-0.113,0.675c0.111,0.366,0.196,0.743,0.22,1.145
        c0.012,0.193-0.102,0.31-0.233,0.419v5.254h-3.894c0,0,0.011-2.262,0.018-4.806c-0.098-0.049-0.198-0.093-0.293-0.151
        c-0.343-0.211-0.699-0.388-1.124-0.398c-0.321-0.009-0.564-0.029-0.755-0.073v5.429H6.416v-3.303
        c-0.256,0.031-0.535,0.012-0.857-0.095c-0.475-0.157-0.91,0.37-1.257,0.804c-0.478,0.596-0.987,1.237-1.923,0.971
        c0.21,0.479,0.269,0.999,0.511,1.478c0.083,0.164,0.087,0.372,0.04,0.591C5.662,27.582,10.045,30,15,30
        c3.116,0,6.01-0.953,8.409-2.582C23.63,26.767,24.057,26.212,24.618,25.709z" />
            <path fill="#444444" d="M17.312,10.975c0.131,0.245,0.189,0.674,0.199,1.152c0.556-0.393,1.309-0.686,2.356-0.686
        c1.38,0,2.561,0.504,3.369,1.515c0.228-0.138,0.507-0.226,0.608-0.489c0.001,0,0.001,0,0.001,0c0,0-0.001,0-0.001-0.001
        c-0.404-0.258-0.957-0.17-1.309-0.556h0.001l0,0c-0.896-0.396-1.808-0.742-2.597-1.36c-0.728-0.569-1.506-0.338-2.246,0.059
        C17.568,10.731,17.441,10.853,17.312,10.975z" />
            <path fill="#444444" d="M16.604,13.025c-0.061-0.038-0.126-0.072-0.186-0.102c-0.019-0.009-0.039-0.024-0.06-0.038v0.49
        C16.432,13.264,16.515,13.146,16.604,13.025z" />
            <path fill="#444444" d="M12.087,14.519c0,0.001,0,0.001,0,0.001c0.135-0.003,0.267-0.023,0.401-0.03c0-0.027,0-0.054,0-0.081
        C12.354,14.446,12.221,14.483,12.087,14.519z" />
            <path fill="#4A4A4A" d="M1.685,14.142c0.85-0.047,0.908-0.748,1.055-1.324c0.177-0.7,0.855-1.115,0.952-1.875
        c0.048-0.374,0.147-0.702-0.024-1.069C3.3,9.087,3.657,8.394,4.085,7.788c0.444-0.63,1.302-0.433,2.025,0.393c0,0,0,0,0.001,0
        c0,0,0,0,0,0C6.067,7.94,6.024,7.701,5.962,7.36c0.12,0.055,0.206,0.132,0.298,0.205c0.226-0.877,1.011-1.498,2.13-1.498
        c1.331,0,2.151,0.876,2.176,2.024c0,1.111-0.828,2-2.157,2.021c0.174,0.049,0.361,0.071,0.574,0.041
        c0.478-0.068,0.512,0.479,0.463,0.844c-0.032,0.242-0.046,0.481-0.051,0.72h0.429c-0.215-0.532-0.164-0.919-0.112-1.33
        c0.352,0.409,0.363,0.434,0.171,1.33h0.428v0.979c0.186-0.021,0.369-0.041,0.427-0.203c0.302-0.838,1.046-0.823,1.721-0.956
        c0.187-0.656,0.5-1.179,1.219-1.392c0.739-0.218,0.751-0.735,0.416-1.312c-0.123-0.211-0.322-0.377-0.469-0.576
        c-0.159-0.215-0.439-0.417-0.261-0.729c0.189-0.331,0.472-0.145,0.742-0.09c0.933,0.19,1.578-0.169,2.083-1.125
        c-0.062-0.062-0.125-0.125-0.187-0.187c0,0,0,0,0-0.001c-0.836-0.477-1.562,0.069-2.32,0.268c-0.165,0.043-0.282,0.251-0.448,0.315
        c-0.301,0.117-0.656,0.371-0.916-0.022c-0.204-0.308-0.021-0.615,0.219-0.824c0.297-0.257,0.453-0.573,0.573-0.933
        c0.1-0.298,0.16-0.552-0.227-0.661c-0.348-0.099-0.521,0.065-0.589,0.399c-0.052,0.258,0.065,0.643-0.288,0.712
        c-0.373,0.073-0.438-0.359-0.656-0.551c-0.897-0.79-1.357-1.847-1.93-2.854c-0.15-0.264-0.396-0.449-0.669-0.594
        C5.748,2.76,3.277,5.095,1.737,8.007C1.752,8.057,1.77,8.104,1.78,8.157c0.002,0.257-0.057,0.48-0.329,0.491
        c-0.009,0-0.013-0.004-0.021-0.004c-0.757,1.612-1.236,3.375-1.374,5.237C0.523,14.147,1.088,14.175,1.685,14.142z" />
            <path fill="#555555" d="M9.421,1.972c0.573,1.007,1.033,2.064,1.93,2.854c0.218,0.192,0.283,0.624,0.656,0.551
        c0.353-0.069,0.236-0.454,0.288-0.712c0.068-0.334,0.241-0.498,0.589-0.399c0.387,0.109,0.327,0.363,0.227,0.661
        c-0.12,0.36-0.276,0.676-0.573,0.933c-0.24,0.209-0.423,0.516-0.219,0.824c0.26,0.393,0.615,0.139,0.916,0.022
        c0.166-0.064,0.283-0.272,0.448-0.315c0.758-0.199,1.484-0.745,2.32-0.268c0.001,0,0.001,0,0.002,0.001
        c0.104-0.186,0.167-0.442,0.326-0.546c0.68-0.448,0.369-0.799-0.079-1.136c-0.245-0.185-0.505-0.391-0.791-0.478
        c-0.52-0.156-0.839-0.464-1.063-0.95c-0.194-0.42-0.448-0.819-0.932-0.99c-0.198-0.07-0.35-0.218-0.152-0.412
        c0.598-0.59,0.037-0.954-0.269-1.327c-0.035-0.043-0.07-0.085-0.105-0.127c-0.307,0.042-0.616,0.079-0.917,0.14
        c-0.091,0.198-0.383,0.409-0.904,0.786C10.63,1.436,10.47,1.2,10.276,0.839c-0.01-0.02-0.011-0.04-0.02-0.06
        C9.741,0.952,9.24,1.153,8.751,1.378C9.024,1.523,9.271,1.708,9.421,1.972z" />
            <path fill="#6E6E6E" d="M26.475,6.519c-0.725,0.639-1.146,0.266-1.51-0.396c0-0.003-0.001-0.007-0.002-0.01
        c-0.2-0.931-0.785-1.655-1.307-2.414l0,0c-0.184-0.003-0.368-0.005-0.553-0.007c-0.001,0-0.002-0.001-0.003-0.001
        c0.001,0.001,0.001,0.001,0.001,0.002c-0.805,0.515-1.6,1.021-2.574,1.217c-0.385,0.077-0.748,0.432-1.045,0.735
        c-0.455,0.463-0.898,0.908-1.469,1.252c-0.67,0.402-0.586,1.132-0.447,1.767c0.125,0.578,0.377,1.099-0.149,1.632
        c-0.199,0.199,0.103,0.275,0.278,0.313c0.74-0.397,1.519-0.628,2.246-0.059c0.789,0.618,1.701,0.964,2.597,1.36l0,0
        c0.775,0.006,1.563-0.017,1.866,0.932c0.188,0.108,0.371,0.229,0.566,0.319c0.139,0.063,0.315,0.123,0.422-0.04
        c0.098-0.147,0.016-0.307-0.082-0.427c-0.39-0.479-0.772-0.962-1.184-1.421c-0.37-0.415-0.449-0.817-0.013-1.215
        c0.521-0.473,0.508-1.017,0.29-1.618c-0.129-0.358-0.237-0.742,0.229-0.962c0.429-0.201,0.793-0.065,1.08,0.278
        c0.382,0.457,0.634,0.977,0.812,1.554c0.396,1.273,0.787,1.471,2.092,1.188c0.272-0.059,0.495-0.064,0.683-0.026
        c-0.112-0.354-0.244-0.699-0.382-1.041c-0.068-0.085-0.108-0.183-0.111-0.296c-0.393-0.921-0.877-1.793-1.438-2.609
        c-0.035-0.021-0.072-0.034-0.105-0.061C27.041,6.289,26.689,6.327,26.475,6.519z M28.016,9.065c0.01,0.247-0.119,0.358-0.33,0.367
        c-0.395,0.018-0.639-0.19-0.719-0.563c-0.044-0.204,0.051-0.394,0.284-0.363C27.6,8.551,27.863,8.754,28.016,9.065z" />
            <path fill="#434343" d="M24.967,4.97c0.215,0.394,0.377,0.794-0.001,1.151c-0.001-0.003-0.002-0.005-0.003-0.008
        c0.001,0.003,0.002,0.007,0.002,0.01c0.363,0.662,0.785,1.035,1.51,0.396c0.215-0.192,0.566-0.23,0.789-0.054
        c0.033,0.026,0.07,0.04,0.105,0.061c-0.404-0.589-0.859-1.14-1.342-1.665C25.788,4.93,25.454,4.958,24.967,4.97z" />
            <path fill="#434343" d="M22.928,2.957C22.928,2.958,22.928,2.958,22.928,2.957c0.059,0.245,0.116,0.49,0.173,0.733
        c0.001,0,0.002,0.001,0.003,0.001c0.185,0.002,0.369,0.004,0.553,0.007c0.184-0.17,0.347-0.361,0.516-0.547
        c-0.296-0.23-0.595-0.455-0.908-0.663C23.179,2.646,23.069,2.802,22.928,2.957L22.928,2.957z" />
            <path fill="#212121" d="M6.416,13.622v-1.906h2.979c0.005-0.239,0.019-0.478,0.051-0.72c0.049-0.365,0.015-0.912-0.463-0.844
        c-0.213,0.031-0.4,0.008-0.574-0.041c-0.016,0-0.03,0.004-0.046,0.004H8.338c-1.158,0-1.949-0.708-2.115-1.651
        c-0.03-0.099-0.063-0.196-0.112-0.283c0,0,0,0-0.001,0C5.387,7.355,4.529,7.158,4.085,7.788C3.657,8.394,3.3,9.087,3.668,9.874
        c0.171,0.367,0.072,0.695,0.024,1.069c-0.097,0.76-0.775,1.175-0.952,1.875c-0.147,0.576-0.205,1.277-1.055,1.324
        c-0.597,0.033-1.162,0.005-1.628-0.261C0.029,14.252,0,14.623,0,15c0,1.719,0.304,3.364,0.838,4.903
        c0.747-0.963,1.037-2.258,1.579-3.33C3.32,14.786,4.742,13.998,6.416,13.622z" />
            <path fill="#5F5F5F" d="M28.617,10.498c-1.305,0.283-1.695,0.085-2.092-1.188c-0.178-0.577-0.43-1.097-0.812-1.554
        c-0.287-0.343-0.651-0.479-1.08-0.278c-0.467,0.22-0.358,0.604-0.229,0.962c0.218,0.601,0.23,1.145-0.29,1.618
        c-0.437,0.398-0.357,0.8,0.013,1.215c0.411,0.459,0.794,0.942,1.184,1.421c0.098,0.12,0.18,0.28,0.082,0.427
        c-0.106,0.163-0.283,0.103-0.422,0.04c-0.195-0.09-0.378-0.211-0.566-0.319c0.096,0.151,0.18,0.312,0.289,0.451
        c0.13,0.165,0.588,0.188,0.354,0.49c-0.235,0.308-0.582,0.115-0.769-0.147c-0.271-0.382-0.561-0.549-0.893-0.475
        c0.594,0.845,0.954,1.996,0.962,3.506c0.188,0.333,0.519,0.483,0.989,0.469l0,0c0.001,0,0.001,0,0.001,0l0,0
        c0.619-0.556,1.156-0.544,1.626,0.037c0.549,0.678,1.926,1.037,2.746,0.742c0.183-0.922,0.281-1.874,0.286-2.849
        c0.001-0.032,0.001-0.063,0.001-0.095c-0.003-1.568-0.248-3.079-0.698-4.5C29.112,10.434,28.89,10.439,28.617,10.498z" />
            <path fill="#313131" d="M2.378,21.805c0,0.001,0,0.002,0.001,0.002c0.936,0.267,1.445-0.375,1.923-0.971
        c0.347-0.434,0.782-0.961,1.257-0.804c0.322,0.106,0.601,0.126,0.857,0.095v-2.215c-0.154,0.283-0.497,0.444-0.867,0.496
        c-0.585,0.081-1.172,0.138-1.783,0.208c-0.532,0.001-0.953-0.232-1.122-0.772c-0.149-0.475-0.067-0.951,0.332-1.277
        c0.422-0.344,0.897-0.432,1.352-0.021c0.338,0.308,0.75,0.216,1.148,0.254c0.369,0.036,0.772,0.154,0.94,0.461v-3.639
        c-1.674,0.376-3.096,1.164-3.999,2.952c-0.542,1.072-0.832,2.367-1.579,3.33c0.134,0.386,0.277,0.768,0.441,1.14
        C1.662,21.203,2.026,21.467,2.378,21.805z" />
            <path fill="#555555" d="M2.89,23.284c-0.243-0.479-0.301-0.999-0.511-1.478c0,0,0-0.001-0.001-0.002
        c-0.352-0.338-0.716-0.602-1.099-0.762c0.446,1.009,1.004,1.954,1.651,2.832C2.978,23.656,2.974,23.448,2.89,23.284z" />
            <path fill="#4C4C4C"
                d="M28.918,9.431c-0.039-0.098-0.07-0.199-0.111-0.296C28.81,9.248,28.85,9.346,28.918,9.431z" />
            <path fill="#656565" d="M21.516,3.552c0.006,0.245-0.166,0.506-0.406,0.59c-1.123,0.393-2.008,1.256-3.004,1.72
        c-0.881,0.412-0.895,0.83-0.965,1.476c-0.045,0.41-0.189,0.778-0.348,1.152c-0.277,0.655,0.038,2.095,0.52,2.485c0,0,0,0,0,0
        c0.129-0.122,0.256-0.244,0.383-0.366c-0.176-0.038-0.478-0.114-0.278-0.313c0.526-0.533,0.274-1.054,0.149-1.632
        c-0.139-0.635-0.223-1.365,0.447-1.767c0.57-0.344,1.014-0.789,1.469-1.252c0.297-0.303,0.66-0.658,1.045-0.735
        c0.975-0.196,1.77-0.702,2.574-1.217c0-0.001,0-0.001-0.001-0.002c-0.057-0.244-0.114-0.488-0.173-0.732c0,0,0,0,0-0.001
        c-0.586-0.074-0.642-0.551-0.64-0.968c0-0.034-0.008-0.064-0.009-0.098c-0.266-0.148-0.541-0.278-0.816-0.41
        C21.575,2.157,21.499,2.862,21.516,3.552z" />
            <path fill="#555555" d="M15.377,10.647c0.384,0.073,0.796-0.404,0.639-0.843c-0.309-0.867,0.088-1.577,0.35-2.324
        c0.152-0.436,0.275-0.838-0.176-1.17c0,0,0,0,0,0c-0.506,0.957-1.15,1.315-2.083,1.125c-0.27-0.055-0.553-0.241-0.742,0.09
        c-0.178,0.312,0.102,0.514,0.261,0.729c0.147,0.199,0.346,0.365,0.469,0.576c0.335,0.577,0.323,1.094-0.416,1.312
        c-0.719,0.213-1.032,0.736-1.219,1.392C13.31,10.839,14.213,10.425,15.377,10.647z" />
            <path fill="#343434" d="M12.475,12.047c-0.721-0.284-0.958,0.27-1.224,1.906c-0.049,0.301-0.219,0.675,0.05,0.878
        c0.325,0.247,0.515-0.21,0.785-0.312c0,0,0,0,0.001,0c0.134-0.035,0.268-0.073,0.401-0.11
        C12.487,13.378,12.483,12.526,12.475,12.047z" />
            <path fill="#4A4A4A"
                d="M19.589,14.843c-0.233,0.219-0.371,0.511-0.498,0.832c-0.248,0.63-0.437,1.276-0.809,1.869
        c-0.438,0.692,0.101,1.45,0.938,1.45c0.428-0.003,0.822-0.094,0.99-0.545c0.191-0.53-0.134-0.876-0.473-1.221
        c-0.719-0.726-0.699-0.989,0.162-1.442c0.107-0.057,0.187-0.137,0.275-0.209C20.037,15.269,19.841,15.023,19.589,14.843z" />
            <path fill="#4A4A4A" d="M23.847,12.467C23.847,12.467,23.847,12.467,23.847,12.467c-0.103,0.263-0.382,0.351-0.609,0.489
        c0.052,0.065,0.101,0.135,0.149,0.205c0.332-0.074,0.621,0.093,0.893,0.475c0.187,0.262,0.533,0.455,0.769,0.147
        c0.233-0.302-0.225-0.325-0.354-0.49c-0.109-0.139-0.193-0.3-0.289-0.451C24.218,12.717,24.034,12.591,23.847,12.467z" />
            <path fill="#5F5F5F" d="M23.846,12.466C23.846,12.466,23.847,12.466,23.846,12.466c0.188,0.125,0.372,0.251,0.559,0.376
        c-0.303-0.948-1.091-0.926-1.866-0.932h-0.001C22.889,12.296,23.441,12.208,23.846,12.466z" />
            <path fill="#5C5C5C"
                d="M6.187,8.091c0-0.185,0.03-0.358,0.073-0.526C6.167,7.492,6.082,7.415,5.962,7.36
        c0.062,0.341,0.105,0.58,0.149,0.821c0,0,0,0,0,0c0.048,0.087,0.082,0.184,0.112,0.283C6.201,8.343,6.187,8.219,6.187,8.091z" />
            <path fill="#262626" d="M1.78,8.157c-0.01-0.053-0.028-0.101-0.043-0.15C1.627,8.215,1.53,8.431,1.43,8.644
        c0.008,0,0.012,0.004,0.021,0.004C1.723,8.637,1.782,8.414,1.78,8.157z" />
            <path fill="#5C5C5C"
                d="M9.712,10.386c-0.052,0.411-0.103,0.798,0.112,1.33h0.06C10.075,10.82,10.063,10.794,9.712,10.386z" />
            <path fill="#565656" d="M23.656,3.699L23.656,3.699c0.521,0.758,1.106,1.482,1.307,2.414c0.001,0.003,0.002,0.005,0.003,0.008
        c0.378-0.357,0.216-0.757,0.001-1.151c0.487-0.012,0.821-0.041,1.061-0.11c-0.57-0.62-1.189-1.191-1.855-1.708
        C24.003,3.338,23.84,3.529,23.656,3.699z" />
            <path fill="#5F5F5F" d="M26.967,8.869c0.08,0.373,0.324,0.581,0.719,0.563c0.211-0.009,0.34-0.12,0.33-0.367
        c-0.152-0.311-0.416-0.514-0.765-0.559C27.018,8.475,26.923,8.665,26.967,8.869z" />
            <path fill="#6E6E6E" d="M22.928,2.957L22.928,2.957c0.142-0.155,0.251-0.311,0.336-0.467c-0.32-0.212-0.648-0.411-0.984-0.598
        c0.001,0.034,0.009,0.063,0.009,0.098C22.286,2.406,22.342,2.883,22.928,2.957z" />
            <path fill="#414141" d="M5.476,16.8c-0.398-0.038-0.81,0.054-1.148-0.254c-0.455-0.411-0.93-0.323-1.352,0.021
        c-0.399,0.326-0.481,0.803-0.332,1.277c0.169,0.54,0.59,0.773,1.122,0.772c0.611-0.07,1.198-0.127,1.783-0.208
        c0.37-0.052,0.713-0.213,0.867-0.496v-0.651C6.248,16.954,5.845,16.836,5.476,16.8z" />
        </g>
    </svg>