<svg version="1.1" xmlns="http://www.w3.org/2000/svg" class="twitter-icon" xmlns:xlink="http://www.w3.org/1999/xlink" x="0px"
        y="0px" width="30px" height="30px" viewBox="0 0 30 30" enable-background="new 0 0 30 30" xml:space="preserve">
            <path fill="#4A4A4A" d="M25.529,20.418L25.529,20.418c0.587-0.113,1.102-0.18,0.514,0.648c-0.193,0.275-0.148,0.582,0.036,0.848
        c0.54,0.781,0.067,1.264-0.578,1.445c-1.108,0.311-1.791,1.049-2.384,1.941c-0.271,0.408-0.605,0.697-1.126,0.533
        c-0.378-0.121-0.609-0.402-0.562-0.822c0.06-0.535,0.42-0.748,0.92-0.832c0.293-0.047,0.588-0.137,0.864-0.246
        c0.241-0.096,0.361-0.312,0.359-0.576c-0.005-0.275-0.118-0.479-0.421-0.486c-0.563-0.014-0.731-0.596-1.158-0.795
        c-0.246-0.113-0.52-0.26-0.756-0.025c-0.24,0.236-0.02,0.438,0.126,0.623c0.56,0.729,0.067,1.174-0.456,1.559
        c-0.405,0.303-0.869,0.527-1.314,0.775c-0.707,0.393-1.005,0.879-1.033,1.787c-0.031,1.023-0.331,2.07-0.945,2.961
        c0.747-0.131,1.474-0.316,2.178-0.553c-0.208-0.27-0.304-0.576-0.094-0.943c0.306-0.533,0.846-0.666,1.416-0.553
        c0.38,0.076,0.754,0.213,1.104,0.383c0.019,0.008,0.037,0.012,0.057,0.021c2.787-1.551,5.02-3.967,6.355-6.881
        c-0.605-0.105-1.211-0.385-1.529-0.775C26.648,19.893,26.126,19.881,25.529,20.418z" />
            <path fill="#5C5C5C" d="M13.172,2.048c-0.626,0.868-0.063,1.426,0.442,2.04c0.295,0.361,0.838,0.716,0.259,1.287
        c-0.192,0.188-0.045,0.332,0.147,0.4c0.467,0.165,0.715,0.553,0.901,0.959c0.218,0.471,0.526,0.769,1.03,0.92
        c0.278,0.084,0.53,0.285,0.769,0.462c0.434,0.327,0.734,0.667,0.074,1.102c-0.144,0.095-0.208,0.318-0.299,0.494
        c0.65-0.634,1.536-1.027,2.515-1.027c0.248,0,0.489,0.027,0.723,0.075c0.531-0.356,1.074-0.717,1.693-0.933
        c0.233-0.082,0.397-0.334,0.392-0.572c-0.025-1.12,0.209-2.281-0.603-3.274c-0.454-0.555-0.747-1.114-0.554-1.966
        c0.068-0.303,0.045-0.627-0.07-0.925C18.862,0.394,16.979,0,15,0c-0.626,0-1.239,0.051-1.847,0.126
        c0.109,0.343,0.149,0.795,0.179,1.135C13.353,1.521,13.313,1.848,13.172,2.048z" />
            <path fill="#5C5C5C" d="M10.456,20.838c0.622-0.254,1.211-0.572,1.732-0.98c-0.668-0.012-1.285-0.213-1.817-0.541
        c-0.014,0.207-0.028,0.414-0.024,0.623C10.354,20.354,10.381,20.637,10.456,20.838z" />
            <path fill="#5C5C5C" d="M10.293,2.532c0.492,0.14,0.586,0.634,0.581,1.117c-0.004,0.326-0.111,0.662,0.057,0.978
        c0.188,0.35,0.342,0.578,0.816,0.237c1.195-0.866,1.219-0.836,0.081-1.854c-0.091-0.08-0.238-0.166-0.245-0.255
        c-0.066-0.989-0.762-1.171-1.559-1.392C9.762,1.291,9.692,1.144,9.71,0.979C9.478,1.067,9.243,1.151,9.017,1.251
        C9.278,1.817,9.577,2.328,10.293,2.532z" />
            <path fill="#444444"
                d="M19.594,25.008c0.445-0.248,0.909-0.473,1.314-0.775c0.523-0.385,1.016-0.83,0.456-1.559
        c-0.146-0.186-0.366-0.387-0.126-0.623c0.236-0.234,0.51-0.088,0.756,0.025c0.427,0.199,0.595,0.781,1.158,0.795
        c0.303,0.008,0.416,0.211,0.421,0.486c0.002,0.264-0.118,0.48-0.359,0.576c-0.276,0.109-0.571,0.199-0.864,0.246
        c-0.5,0.084-0.86,0.297-0.92,0.832c-0.048,0.42,0.184,0.701,0.562,0.822c0.521,0.164,0.854-0.125,1.126-0.533
        c0.593-0.893,1.275-1.631,2.384-1.941c0.646-0.182,1.118-0.664,0.578-1.445c-0.185-0.266-0.229-0.572-0.036-0.848
        c0.588-0.828,0.073-0.762-0.514-0.648l0,0c-0.001,0-0.001,0-0.002,0.002c-0.633,0.02-1.018-0.256-1.109-0.91
        c-0.062-0.436-0.378-0.754-0.629-1.068c-0.389-0.492-0.607-1.018-0.611-1.636c0-0.002,0.001-0.002,0.002-0.004
        c-0.001,0.002-0.001,0.002-0.002,0.002c0.065-0.537,0.734-0.475,0.903-0.909c-0.394-0.252-0.931-0.166-1.269-0.539
        c0.001,0,0.002,0,0.003,0c-0.001-0.001-0.002-0.001-0.003-0.001c-0.166-0.073-0.333-0.145-0.499-0.217
        c-0.138,0.558-0.324,1.111-0.556,1.652c0.113,0.243,0.176,0.499-0.01,0.669c-0.444,0.408-0.695,0.979-1.139,1.383
        c-0.283,0.395-0.604,0.764-0.946,1.117c0.074,0.152,0.215,0.328,0.437,0.551c0.328,0.332,0.643,0.67,0.457,1.182
        c-0.162,0.438-0.545,0.525-0.959,0.527c-0.789,0-1.296-0.691-0.938-1.346c-1.63,1.281-3.738,2.105-6.301,2.105
        c-1.215,0-2.369-0.236-3.446-0.627c-0.013,0.01-0.02,0.018-0.032,0.025c-0.777,0.568-1.395,1.219-2.52,0.848
        c-0.461-0.152-0.883,0.357-1.219,0.777c-0.358,0.445-0.736,0.914-1.305,0.986C6.583,28.057,10.562,30,15,30
        c0.894,0,1.765-0.094,2.615-0.244c0.614-0.891,0.914-1.938,0.945-2.961C18.589,25.887,18.887,25.4,19.594,25.008z M23.384,20.518
        c0.147,0,0.189,0.107,0.159,0.258c-0.109,0.188-0.229,0.408-0.507,0.369c-0.138-0.02-0.147-0.162-0.101-0.277
        C23.016,20.67,23.157,20.521,23.384,20.518z M22.552,17.738c0.496,0.082,0.396,0.57,0.447,0.938
        c-0.062,0.201,0.087,0.605-0.245,0.543c-0.443-0.084-0.473-0.549-0.47-0.939C22.284,18.062,22.236,17.688,22.552,17.738z" />
            <path fill="#444444" d="M21.115,27.707c-0.57-0.113-1.11,0.02-1.416,0.553c-0.21,0.367-0.114,0.674,0.094,0.943
        c0.865-0.293,1.696-0.654,2.482-1.092c-0.02-0.01-0.038-0.014-0.057-0.021C21.869,27.92,21.495,27.783,21.115,27.707z" />
            <path fill="#444444" d="M10.335,17.256c0,0.02-0.001,0.039-0.002,0.059c0.039-0.01,0.08-0.014,0.118-0.023
        C10.411,17.283,10.374,17.266,10.335,17.256z" />
            <path fill="#444444" d="M10.456,20.838c-0.075-0.201-0.103-0.484-0.109-0.898c-0.004-0.209,0.011-0.416,0.024-0.623
        c-0.079-0.049-0.159-0.096-0.233-0.15c-0.059,0.258-0.131,0.504-0.393,0.615c-0.729,0.314-0.717,0.865-0.467,1.426
        C9.686,21.117,10.077,20.994,10.456,20.838z" />
            <path fill="#4A4A4A" d="M0.365,14.538c0.151,0.151,0.089,0.334-0.019,0.492c-0.347,0.509-0.285,1,0.002,1.521
        c0.506,0.923,1.342,1.013,2.254,0.964c0.822-0.047,0.879-0.726,1.021-1.282c0.172-0.679,0.83-1.082,0.922-1.817
        c0.047-0.362,0.145-0.681-0.023-1.037c-0.355-0.762-0.01-1.434,0.406-2.021c0.428-0.61,1.258-0.419,1.961,0.381
        c0.001,0,0.002,0,0.002,0c-0.043-0.231-0.086-0.464-0.144-0.794c0.48,0.22,0.706,0.613,0.921,0.998
        c-0.057-0.255-0.092-0.518-0.092-0.789c0-0.659,0.179-1.28,0.486-1.812c1.645,2.02,4.042,3.385,6.764,3.701
        c0.016-0.201-0.057-0.431-0.197-0.673c-0.117-0.204-0.312-0.366-0.455-0.559c-0.154-0.208-0.425-0.404-0.253-0.707
        c0.185-0.322,0.458-0.142,0.72-0.088c0.396,0.08,0.731,0.04,1.033-0.088c0.184-0.449,0.451-0.854,0.789-1.191
        c-0.807-0.446-1.503,0.076-2.232,0.267c-0.16,0.041-0.273,0.243-0.437,0.305c-0.291,0.113-0.637,0.36-0.888-0.021
        c-0.199-0.297-0.021-0.596,0.212-0.798c0.287-0.249,0.438-0.555,0.556-0.904c0.098-0.289,0.154-0.535-0.219-0.64
        c-0.338-0.095-0.506,0.062-0.571,0.388c-0.05,0.249,0.065,0.622-0.278,0.689c-0.361,0.072-0.424-0.349-0.637-0.534
        c-0.869-0.765-1.313-1.789-1.871-2.766C9.744,5.1,8.897,4.846,8.229,4.838C7.567,4.832,6.42,4.344,6.372,5.769
        c-0.001,0.063-0.25,0.12-0.383,0.181C6.218,6.295,6.358,6.55,5.743,6.677C4.187,6.996,4.394,6.983,4.37,5.41
        c0.219-0.464,0.315-0.873,0.234-1.205C1.89,6.82,0.167,10.443,0.026,14.473c0.01-0.005,0.014-0.013,0.024-0.018
        C0.138,14.423,0.299,14.472,0.365,14.538z M2.075,11.084c0.393,0.019,0.559,0.295,0.621,0.632c0.003,0.25-0.057,0.468-0.318,0.478
        c-0.441,0.018-0.521-0.33-0.581-0.662C1.758,11.308,1.776,11.071,2.075,11.084z" />
            <path fill="#4A4A4A" d="M7.606,12.828c0.191,0.051,0.363,0.142,0.53,0.245c-0.079-0.127-0.151-0.258-0.216-0.395
        C7.835,12.742,7.704,12.789,7.606,12.828z" />
            <path fill="#555555" d="M4.37,5.41c0.865-0.801,1.085,0.343,1.619,0.539c0.133-0.061,0.382-0.117,0.383-0.181
        C6.42,4.344,7.567,4.832,8.229,4.838C8.897,4.846,9.744,5.1,10.099,5.724c0.558,0.977,1.002,2.001,1.871,2.766
        c0.213,0.186,0.275,0.606,0.637,0.534c0.344-0.067,0.229-0.44,0.278-0.689c0.065-0.325,0.233-0.482,0.571-0.388
        c0.373,0.104,0.316,0.351,0.219,0.64c-0.117,0.35-0.269,0.655-0.556,0.904c-0.233,0.202-0.411,0.501-0.212,0.798
        c0.251,0.382,0.597,0.135,0.888,0.021c0.163-0.062,0.276-0.264,0.437-0.305c0.729-0.19,1.426-0.713,2.232-0.267
        c0.01-0.01,0.022-0.017,0.032-0.026c0.091-0.176,0.155-0.399,0.299-0.494c0.66-0.435,0.359-0.774-0.074-1.102
        c-0.238-0.177-0.49-0.378-0.769-0.462c-0.504-0.151-0.812-0.449-1.03-0.92c-0.187-0.406-0.435-0.794-0.901-0.959
        c-0.192-0.068-0.34-0.212-0.147-0.4c0.579-0.571,0.036-0.926-0.259-1.287c-0.506-0.614-1.068-1.172-0.442-2.04
        c0.142-0.2,0.181-0.527,0.16-0.787c-0.029-0.34-0.069-0.792-0.179-1.135c-1.198,0.147-2.35,0.44-3.443,0.854
        c-0.018,0.164,0.052,0.312,0.314,0.384c0.797,0.221,1.492,0.402,1.559,1.392c0.007,0.089,0.154,0.175,0.245,0.255
        c1.138,1.019,1.114,0.988-0.081,1.854c-0.475,0.341-0.628,0.112-0.816-0.237c-0.168-0.315-0.061-0.651-0.057-0.978
        c0.005-0.483-0.089-0.978-0.581-1.117C9.577,2.328,9.278,1.817,9.017,1.251C7.37,1.969,5.881,2.977,4.604,4.205
        C4.686,4.537,4.589,4.946,4.37,5.41z" />
            <path fill="#6E6E6E" d="M27.393,10.078c-0.216-0.171-0.557-0.133-0.767,0.054c-0.7,0.618-1.108,0.257-1.463-0.386
        c0,0,0-0.001,0-0.002c-0.001,0.001-0.001,0.001-0.001,0.001c-0.189-0.907-0.76-1.609-1.265-2.347c-0.001,0-0.001,0-0.001,0
        c-0.181-0.004-0.357-0.005-0.539-0.006c-0.779,0.498-1.549,0.986-2.494,1.178c-0.218,0.044-0.426,0.182-0.621,0.346
        c0.536,0.194,1.02,0.496,1.402,0.905c0.823-0.164,1.595-0.463,2.291-0.875c-0.271,0.846-0.838,1.549-1.588,1.998
        c0.734-0.089,1.43-0.284,2.073-0.568c-0.487,0.727-1.101,1.362-1.804,1.871c0.008,0.15,0.008,0.308,0.008,0.464
        c0,0.799-0.11,1.616-0.312,2.427c0.166,0.072,0.333,0.144,0.499,0.217c0.001,0,0.002,0,0.003,0.001
        c0.749,0.006,1.511-0.017,1.806,0.903c0.186,0.104,0.357,0.223,0.551,0.309c0.135,0.062,0.305,0.121,0.407-0.037
        c0.095-0.145,0.014-0.299-0.08-0.416c-0.377-0.464-0.748-0.93-1.146-1.375c-0.358-0.402-0.434-0.792-0.013-1.178
        c0.505-0.457,0.493-0.985,0.284-1.568c-0.128-0.348-0.232-0.72,0.221-0.932c0.413-0.196,0.769-0.064,1.047,0.27
        c0.368,0.442,0.611,0.945,0.783,1.505c0.387,1.234,0.764,1.425,2.027,1.15c0.747-0.162,1.145,0.048,1.28,0.682
        c-0.009-0.395-0.021-0.788-0.06-1.175c-0.092-0.016-0.181-0.036-0.257-0.08c-0.406-0.231-1.007-0.471-0.704-1.048
        c0.166-0.321,0.447-0.391,0.742-0.322c-0.093-0.461-0.209-0.913-0.343-1.357C28.827,10.136,27.969,10.531,27.393,10.078z
         M27.8,12.954c-0.381,0.018-0.618-0.185-0.694-0.547c-0.043-0.198,0.049-0.381,0.274-0.351c0.338,0.043,0.595,0.239,0.741,0.542
        C28.131,12.836,28.005,12.945,27.8,12.954z" />
            <path fill="#434343" d="M21.917,2.149c0,0.001,0,0.001,0,0.002c0.115,0.24,0.231,0.481,0.347,0.722l0,0
        c0.152,0.688,0.549,1.238,1,1.751c0.622,0.715,0.531,1.391-0.074,2.055l0,0c0,0,0,0,0,0.001c0.057,0.236,0.112,0.475,0.168,0.713
        c0.182,0.001,0.358,0.002,0.539,0.006c0,0,0,0,0.001,0c-0.001-0.001-0.001-0.001-0.001-0.001c0.434-0.402,0.742-0.938,1.326-1.175
        c0.094-0.039,0.213-0.193,0.203-0.28c-0.052-0.508,0.113-0.975,0.274-1.441c-0.994-1.014-2.132-1.884-3.38-2.584
        C22.188,1.995,22.052,2.071,21.917,2.149L21.917,2.149z" />
            <path fill="#434343" d="M26.559,7.151c0.231,1.298,0.088,1.439-1.396,1.478c0.209,0.381,0.364,0.77,0,1.115
        c0,0.001,0,0.002,0,0.002c0.354,0.643,0.763,1.004,1.463,0.386c0.21-0.187,0.551-0.225,0.767-0.054
        c0.576,0.453,1.435,0.058,1.97,0.607c-0.443-1.475-1.103-2.855-1.948-4.101c-0.078,0.012-0.163,0.018-0.255,0.016
        C26.721,6.591,26.456,6.575,26.559,7.151z" />
            <path fill="#212121" d="M3.313,19.873c1.051-2.076,2.813-2.77,4.869-3.038c0.307-0.041,0.594-0.096,0.868-0.174
        c-0.902-0.657-1.495-1.708-1.495-2.91v-0.045c0.485,0.27,1.039,0.435,1.631,0.449c-0.424-0.28-0.778-0.652-1.05-1.082
        c-0.167-0.104-0.339-0.194-0.53-0.245c-0.572-0.141-0.504-0.707-0.715-1.087c0,0,0-0.001,0-0.002c0,0-0.001,0-0.002,0
        c-0.703-0.8-1.533-0.991-1.961-0.381c-0.416,0.587-0.762,1.259-0.406,2.021c0.168,0.356,0.07,0.675,0.023,1.037
        c-0.092,0.735-0.75,1.139-0.922,1.817c-0.143,0.557-0.199,1.235-1.021,1.282c-0.912,0.049-1.748-0.041-2.254-0.964
        C0.062,16.03,0,15.539,0.347,15.03c0.107-0.158,0.17-0.341,0.019-0.492c-0.066-0.066-0.228-0.115-0.314-0.083
        c-0.011,0.005-0.015,0.013-0.024,0.018C0.021,14.649,0,14.822,0,15c0,2.787,0.775,5.389,2.102,7.625
        C2.602,21.766,2.872,20.744,3.313,19.873z" />
            <path fill="#5F5F5F" d="M28.703,13.986c-1.264,0.274-1.641,0.084-2.027-1.15c-0.172-0.56-0.415-1.062-0.783-1.505
        c-0.278-0.334-0.634-0.466-1.047-0.27c-0.453,0.212-0.349,0.584-0.221,0.932c0.209,0.583,0.221,1.111-0.284,1.568
        c-0.421,0.386-0.346,0.775,0.013,1.178c0.397,0.445,0.769,0.911,1.146,1.375c0.094,0.117,0.175,0.271,0.08,0.416
        c-0.103,0.158-0.272,0.1-0.407,0.037c-0.193-0.086-0.365-0.205-0.551-0.309c0.093,0.146,0.172,0.303,0.279,0.438
        c0.125,0.16,0.57,0.182,0.348,0.474c-0.23,0.297-0.568,0.111-0.747-0.143c-0.379-0.534-0.79-0.673-1.321-0.226
        c-0.001,0.002-0.002,0.002-0.002,0.004c0.004,0.618,0.223,1.144,0.611,1.636c0.251,0.314,0.566,0.633,0.629,1.068
        c0.092,0.654,0.477,0.93,1.109,0.91c0.001-0.002,0.001-0.002,0.002-0.002c0.597-0.537,1.119-0.525,1.572,0.037
        c0.318,0.391,0.924,0.67,1.529,0.775C29.502,19.33,30,17.225,30,15c0-0.112-0.015-0.221-0.017-0.332
        C29.848,14.034,29.45,13.824,28.703,13.986z" />
            <path fill="#313131" d="M5.142,24.002c0.336-0.42,0.758-0.93,1.219-0.777c1.125,0.371,1.742-0.279,2.52-0.848
        c0.013-0.008,0.02-0.016,0.032-0.025c-0.685-0.248-1.339-0.553-1.942-0.936c-0.169,0.125-0.389,0.205-0.621,0.238
        c-0.565,0.076-1.138,0.131-1.729,0.199c-0.515,0-0.925-0.225-1.086-0.748c-0.144-0.459-0.065-0.924,0.321-1.238
        c0.408-0.334,0.869-0.418,1.311-0.02c0.328,0.297,0.727,0.209,1.113,0.248c0.457,0.039,0.979,0.205,0.994,0.729
        c0.006,0.229-0.092,0.4-0.239,0.533c0.222,0.021,0.444,0.041,0.672,0.041c0.543,0,1.063-0.08,1.573-0.191
        c-0.25-0.561-0.262-1.111,0.467-1.426c0.262-0.111,0.334-0.357,0.393-0.615c-0.613-0.445-1.082-1.076-1.318-1.814
        c0.225,0.045,0.449,0.066,0.682,0.066c0.287,0,0.566-0.041,0.832-0.104c0.001-0.02,0.002-0.039,0.002-0.059
        c-0.473-0.113-0.904-0.317-1.284-0.595c-0.274,0.078-0.562,0.133-0.868,0.174c-2.056,0.269-3.818,0.962-4.869,3.038
        c-0.441,0.871-0.712,1.893-1.212,2.752c0.501,0.846,1.083,1.637,1.735,2.363C4.405,24.916,4.783,24.447,5.142,24.002z" />
            <path fill="#4C4C4C" d="M28.963,12.365c-0.303,0.577,0.298,0.816,0.704,1.048c0.076,0.044,0.165,0.064,0.257,0.08
        c-0.049-0.491-0.124-0.975-0.219-1.45C29.41,11.975,29.129,12.044,28.963,12.365z" />
            <path fill="#656565" d="M20.662,2.015c-0.193,0.852,0.1,1.411,0.554,1.966c0.812,0.993,0.577,2.154,0.603,3.274
        c0.006,0.238-0.158,0.49-0.392,0.572c-0.619,0.216-1.162,0.576-1.693,0.933c0.177,0.035,0.343,0.096,0.509,0.156
        c0.195-0.164,0.403-0.302,0.621-0.346c0.945-0.191,1.715-0.68,2.494-1.178c-0.056-0.238-0.111-0.477-0.168-0.713
        c0-0.001,0-0.001,0-0.001c-0.567-0.072-0.621-0.535-0.619-0.938c0.003-0.741-0.271-1.323-0.786-1.825
        c-0.192-0.188-0.388-0.389-0.252-0.701c0.145-0.329,0.401-0.413,0.731-0.341c-0.115-0.24-0.231-0.481-0.347-0.722
        c0-0.001,0-0.001,0-0.002c-0.223,0.066-0.468,0.236-0.656,0.005c-0.196-0.241,0.054-0.437,0.164-0.631
        c0.01-0.017,0.021-0.029,0.03-0.046c-0.284-0.136-0.569-0.269-0.863-0.388C20.707,1.388,20.73,1.712,20.662,2.015z" />
            <path fill="#555555"
                d="M15.501,13.114c-0.066-0.262-0.098-0.539-0.098-0.823c0-0.482,0.099-0.941,0.271-1.361
        c-0.302,0.128-0.637,0.168-1.033,0.088c-0.262-0.054-0.535-0.234-0.72,0.088c-0.172,0.303,0.099,0.499,0.253,0.707
        c0.143,0.192,0.338,0.354,0.455,0.559c0.141,0.242,0.213,0.472,0.197,0.673C15.052,13.07,15.272,13.104,15.501,13.114z" />
            <path fill="#4A4A4A" d="M21.748,17.459c0.186-0.17,0.123-0.426,0.01-0.669c-0.307,0.714-0.684,1.407-1.148,2.052
        C21.053,18.438,21.304,17.867,21.748,17.459z" />
            <path fill="#4A4A4A"
                d="M18.659,20.873c-0.357,0.654,0.149,1.346,0.938,1.346c0.414-0.002,0.797-0.09,0.959-0.527
        c0.186-0.512-0.129-0.85-0.457-1.182c-0.222-0.223-0.362-0.398-0.437-0.551C19.352,20.283,19.019,20.59,18.659,20.873z" />
            <path fill="#4A4A4A" d="M22.754,19.219c0.332,0.062,0.184-0.342,0.245-0.543c-0.051-0.367,0.049-0.855-0.447-0.938
        c-0.315-0.051-0.268,0.324-0.268,0.541C22.281,18.67,22.311,19.135,22.754,19.219z" />
            <path fill="#4A4A4A" d="M24.081,15.895c-0.169,0.435-0.838,0.372-0.903,0.909c0.001,0,0.001,0,0.002-0.002
        c0.531-0.447,0.942-0.309,1.321,0.226c0.179,0.254,0.517,0.439,0.747,0.143c0.223-0.292-0.223-0.313-0.348-0.474
        c-0.107-0.135-0.187-0.291-0.279-0.438C24.439,16.136,24.262,16.014,24.081,15.895z" />
            <path fill="#5F5F5F" d="M24.081,15.895c0.181,0.119,0.358,0.241,0.54,0.364c-0.295-0.92-1.057-0.897-1.806-0.903
        c-0.001,0-0.002,0-0.003,0C23.15,15.729,23.688,15.643,24.081,15.895z" />
            <path fill="#4A4A4A" d="M23.036,21.145c0.278,0.039,0.397-0.182,0.507-0.369c0.03-0.15-0.012-0.258-0.159-0.258
        c-0.227,0.004-0.368,0.152-0.448,0.35C22.889,20.982,22.898,21.125,23.036,21.145z" />
            <path fill="#303030" d="M4.37,5.41c0.023,1.573-0.184,1.586,1.373,1.267C6.358,6.55,6.218,6.295,5.989,5.949
        C5.455,5.753,5.235,4.609,4.37,5.41z" />
            <path fill="#5C5C5C" d="M7.921,12.679c-0.108-0.233-0.194-0.479-0.252-0.735c-0.215-0.385-0.44-0.778-0.921-0.998
        c0.058,0.33,0.101,0.562,0.144,0.794c0,0.001,0,0.002,0,0.002c0.211,0.38,0.143,0.946,0.715,1.087
        C7.704,12.789,7.835,12.742,7.921,12.679z" />
            <path fill="#262626" d="M2.378,12.193c0.262-0.01,0.321-0.228,0.318-0.478c-0.062-0.337-0.229-0.613-0.621-0.632
        c-0.299-0.013-0.317,0.224-0.278,0.447C1.856,11.863,1.937,12.211,2.378,12.193z" />
            <path fill="#565656" d="M25.426,5.942c0.01,0.087-0.109,0.241-0.203,0.28c-0.584,0.236-0.893,0.772-1.326,1.175
        c0,0,0,0,0.001,0.001c0.505,0.737,1.075,1.439,1.265,2.347c0,0,0,0,0.001-0.001c0.364-0.346,0.209-0.734,0-1.115
        c1.483-0.038,1.627-0.18,1.396-1.478c-0.103-0.576,0.162-0.561,0.601-0.551c0.092,0.002,0.177-0.004,0.255-0.016
        C26.906,5.838,26.33,5.143,25.7,4.501C25.539,4.968,25.374,5.435,25.426,5.942z" />
            <path fill="#5F5F5F" d="M27.38,12.057c-0.226-0.03-0.317,0.152-0.274,0.351c0.076,0.362,0.313,0.564,0.694,0.547
        c0.205-0.009,0.331-0.118,0.321-0.355C27.975,12.296,27.718,12.1,27.38,12.057z" />
            <path fill="#6E6E6E" d="M23.264,4.624c-0.451-0.513-0.848-1.063-1-1.751l0,0c-0.33-0.072-0.587,0.012-0.731,0.341
        c-0.136,0.312,0.06,0.514,0.252,0.701c0.515,0.502,0.789,1.084,0.786,1.825c-0.002,0.403,0.052,0.866,0.619,0.938l0,0
        C23.795,6.015,23.886,5.339,23.264,4.624z" />
            <path fill="#6E6E6E" d="M21.261,2.154c0.188,0.231,0.434,0.062,0.656-0.005h0.001c0.134-0.078,0.27-0.154,0.402-0.232
        c-0.281-0.158-0.572-0.299-0.865-0.439c-0.01,0.017-0.021,0.029-0.03,0.046C21.314,1.718,21.064,1.913,21.261,2.154z" />
            <path fill="#414141" d="M7.033,21.357c0.147-0.133,0.245-0.305,0.239-0.533c-0.015-0.523-0.537-0.689-0.994-0.729
        c-0.387-0.039-0.785,0.049-1.113-0.248c-0.441-0.398-0.902-0.314-1.311,0.02c-0.387,0.314-0.465,0.779-0.321,1.238
        c0.161,0.523,0.571,0.748,1.086,0.748c0.592-0.068,1.164-0.123,1.729-0.199c0.232-0.033,0.452-0.113,0.621-0.238
        c-0.04-0.025-0.085-0.043-0.125-0.068C6.907,21.355,6.972,21.352,7.033,21.357z" />
        
    </svg>